<svg id="Layer_1" enable-background="new 0 0 256 256" height="512" viewBox="0 0 256 256" width="512" xmlns="http://www.w3.org/2000/svg"><g><path d="m194.796 157.101c-.308 0-.621-.058-.925-.179-1.282-.511-1.908-1.965-1.396-3.248 3.254-8.165 4.904-16.803 4.904-25.674 0-38.256-31.124-69.38-69.379-69.38s-69.379 31.124-69.379 69.38c0 8.871 1.65 17.509 4.904 25.674.511 1.283-.114 2.737-1.396 3.248-1.284.513-2.737-.115-3.248-1.396-3.49-8.757-5.26-18.018-5.26-27.525 0-41.014 33.367-74.38 74.379-74.38s74.379 33.366 74.379 74.38c0 9.508-1.77 18.769-5.26 27.525-.39.978-1.329 1.575-2.323 1.575z" fill="#ebe7f2"/><path d="m128 144.432c-9.061 0-16.432-7.371-16.432-16.432s7.371-16.432 16.432-16.432c1.047 0 2.096.103 3.133.307l27.539-27.539c3.573-3.573 9.386-3.571 12.958 0 1.731 1.73 2.684 4.031 2.684 6.479 0 2.447-.953 4.748-2.684 6.479l-27.515 27.515c.21 1.056.316 2.123.316 3.191.001 9.061-7.37 16.432-16.431 16.432zm0-27.864c-6.303 0-11.432 5.128-11.432 11.432s5.128 11.432 11.432 11.432 11.432-5.128 11.432-11.432c0-1.091-.161-2.185-.477-3.252-.26-.88-.019-1.83.629-2.479l28.511-28.511c.786-.786 1.219-1.832 1.219-2.943 0-1.112-.433-2.158-1.219-2.944-1.623-1.623-4.265-1.623-5.888 0l-28.531 28.531c-.646.646-1.594.888-2.47.632-1.056-.309-2.134-.466-3.206-.466z" fill="#f9b087"/><g fill="#846f75"><path d="m128 33.833c-51.924 0-94.167 42.243-94.167 94.167 0 9.306 1.354 18.498 4.025 27.321.399 1.321 1.797 2.069 3.117 1.668 1.322-.399 2.069-1.796 1.668-3.117-2.528-8.353-3.811-17.058-3.811-25.872 0-15.667 4.067-30.399 11.192-43.207.035.022.064.051.1.072l25.656 14.812c.394.228.824.335 1.248.335.864 0 1.705-.448 2.167-1.25.69-1.195.281-2.725-.915-3.415l-25.655-14.812c-.019-.011-.04-.016-.059-.026 15.393-24.362 42.249-40.79 72.934-41.639v29.214c0 1.381 1.119 2.5 2.5 2.5s2.5-1.119 2.5-2.5v-29.214c30.685.849 57.541 17.277 72.933 41.639-.019.01-.04.015-.059.026l-25.654 14.812c-1.196.69-1.605 2.22-.915 3.415.463.802 1.303 1.25 2.167 1.25.424 0 .854-.107 1.248-.335l25.654-14.812c.036-.021.065-.05.1-.072 7.125 12.808 11.192 27.54 11.192 43.207 0 8.815-1.282 17.521-3.811 25.872-.4 1.321.347 2.717 1.668 3.117.242.073.486.108.726.108 1.073 0 2.065-.696 2.392-1.776 2.671-8.822 4.025-18.015 4.025-27.321.001-51.924-42.242-94.167-94.166-94.167z"/><path d="m206.081 163.661h-156.162c-1.381 0-2.5 1.119-2.5 2.5v65.271c0 1.381 1.119 2.5 2.5 2.5h156.161c1.381 0 2.5-1.119 2.5-2.5v-65.271c.001-1.381-1.119-2.5-2.499-2.5zm-2.5 65.271h-151.162v-60.271h151.161v60.271z"/></g><g fill="#f9b087"><path d="m77.516 198.796 17.464-17.464c.977-.977.977-2.559 0-3.535-.976-.977-2.56-.977-3.535 0l-14.965 14.964v-13.196c0-1.381-1.119-2.5-2.5-2.5s-2.5 1.119-2.5 2.5v38.463c0 1.381 1.119 2.5 2.5 2.5s2.5-1.119 2.5-2.5v-13.196l14.964 14.964c.488.488 1.128.732 1.768.732s1.28-.244 1.768-.732c.977-.977.977-2.559 0-3.535z"/><path d="m182.02 177.064c-1.381 0-2.5 1.119-2.5 2.5v16.731h-14.231v-16.731c0-1.381-1.119-2.5-2.5-2.5s-2.5 1.119-2.5 2.5v38.463c0 1.381 1.119 2.5 2.5 2.5s2.5-1.119 2.5-2.5v-16.731h14.231v16.731c0 1.381 1.119 2.5 2.5 2.5s2.5-1.119 2.5-2.5v-38.463c0-1.38-1.12-2.5-2.5-2.5z"/><path d="m142.424 220.527c-1.381 0-2.5-1.119-2.5-2.5v-30.698l-9.285 12.926c-.459.639-1.193 1.024-1.979 1.04-.818.055-1.536-.34-2.021-.959l-10.563-13.514v31.205c0 1.381-1.119 2.5-2.5 2.5s-2.5-1.119-2.5-2.5v-38.463c0-1.067.677-2.017 1.686-2.363 1.008-.35 2.127-.016 2.784.823l12.978 16.604 11.87-16.523c.633-.881 1.763-1.251 2.796-.921 1.033.333 1.734 1.294 1.734 2.38v38.463c0 1.381-1.119 2.5-2.5 2.5z"/></g></g></svg>